<?xml version="1.0" standalone="no"?>
<!DOCTYPE svg PUBLIC "-//W3C//DTD SVG 20010904//EN"
 "http://www.w3.org/TR/2001/REC-SVG-20010904/DTD/svg10.dtd">
<svg version="1.0" xmlns="http://www.w3.org/2000/svg"
 width="792.534940pt" height="533.835062pt" viewBox="0 0 792.534940 533.835062"
 preserveAspectRatio="xMidYMid meet">
<metadata>
Created by potrace 1.12, written by Peter Selinger 2001-2015
</metadata>
<g transform="translate(-64.465060,599.699892) scale(0.100000,-0.100000)"
fill="currentColor" stroke="none">
<path d="M3405 5988 c-3 -7 -4 -501 -3 -1098 l3 -1085 70 -7 c309 -31 662
-138 973 -295 l122 -61 0 1093 0 1093 -142 70 c-303 148 -536 227 -807 271
-191 32 -211 34 -216 19z"/>
<path d="M5645 5980 c-299 -46 -555 -129 -852 -276 l-153 -76 0 -1092 0 -1092
136 67 c310 154 651 256 959 287 l70 7 0 1095 c0 1088 0 1095 -20 1097 -11 1
-74 -7 -140 -17z"/>
<path d="M3263 5752 l-53 -3 0 -1083 0 -1083 213 -6 c341 -8 672 -73 983 -193
82 -31 166 -59 186 -61 27 -4 65 6 145 37 361 141 684 208 1056 217 l207 6 0
1083 0 1084 -60 0 -60 0 0 -1005 0 -1004 -32 -5 c-18 -3 -94 -12 -168 -21
-252 -30 -527 -111 -803 -237 -49 -22 -124 -60 -168 -84 -43 -24 -89 -44 -101
-44 -12 0 -87 33 -167 73 -186 93 -241 117 -387 167 -175 60 -371 107 -524
125 -74 9 -150 18 -167 21 l-33 5 0 1004 c0 552 -3 1005 -7 1007 -5 2 -32 2
-60 0z"/>
<path d="M3048 5513 l-28 -4 0 -1104 0 -1104 21 -12 c16 -8 55 -8 158 2 174
18 683 18 806 1 128 -18 325 -59 428 -88 126 -37 221 -35 362 4 156 45 363 80
539 93 168 13 518 7 694 -12 83 -8 121 -8 138 0 l24 11 0 1103 0 1104 -37 7
c-21 3 -48 6 -60 6 l-23 0 0 -1004 0 -1003 -232 -6 c-403 -10 -723 -76 -1107
-229 l-124 -49 -156 59 c-396 152 -679 209 -1078 219 l-233 6 0 1003 0 1004
-32 -1 c-18 -1 -45 -4 -60 -6z"/>
<path d="M998 2410 c-152 -26 -277 -143 -330 -310 -32 -102 -31 -255 1 -350
44 -127 115 -210 225 -261 249 -116 522 -12 596 228 33 107 36 103 -79 103
l-98 0 -6 -38 c-10 -61 -55 -120 -115 -149 -123 -60 -270 4 -321 142 -30 79
-30 231 0 311 73 193 328 225 417 51 l25 -47 94 0 95 0 -7 38 c-38 203 -250
323 -497 282z"/>
<path d="M4447 2396 c-62 -17 -116 -61 -144 -116 -39 -76 -26 -161 37 -240 18
-22 31 -42 29 -44 -2 -1 -25 -14 -50 -29 -57 -33 -115 -96 -141 -155 -39 -88
-7 -225 68 -292 57 -49 136 -73 234 -68 91 5 140 23 211 79 l37 29 33 -45 34
-44 109 -1 c126 0 125 -13 8 124 l-73 85 35 73 c20 40 40 92 45 116 l9 42 -79
0 c-68 0 -79 -2 -79 -17 0 -10 -8 -35 -18 -57 l-17 -38 -64 78 c-36 43 -59 80
-53 82 31 10 114 90 132 127 36 73 22 193 -28 248 -52 58 -185 88 -275 63z
m145 -136 c27 -28 30 -36 25 -76 -5 -46 -38 -93 -81 -116 -22 -12 -45 11 -76
77 -27 55 -25 82 9 116 40 40 82 39 123 -1z m-42 -482 l83 -102 -34 -28 c-46
-39 -111 -62 -151 -54 -76 14 -131 92 -114 160 11 43 74 103 132 126 1 0 39
-46 84 -102z"/>
<path d="M1640 1930 l0 -471 93 3 92 3 0 465 0 465 -92 3 -93 3 0 -471z"/>
<path d="M1980 2325 l0 -75 90 0 90 0 0 75 0 75 -90 0 -90 0 0 -75z"/>
<path d="M3090 1930 l0 -471 88 3 87 3 3 115 c3 114 3 115 34 147 18 18 35 33
39 33 4 0 49 -67 99 -150 l93 -150 109 0 c60 0 108 3 106 8 -1 4 -66 101 -142
216 l-139 210 122 118 c66 65 121 121 121 123 0 3 -46 5 -102 5 l-103 0 -117
-122 -117 -123 0 253 -1 252 -90 0 -90 0 0 -470z"/>
<path d="M5470 1930 l0 -471 103 3 102 3 2 180 2 180 108 3 c132 4 164 -2 203
-34 35 -30 45 -64 61 -199 6 -55 16 -108 21 -117 7 -15 23 -18 104 -18 88 0
96 2 89 18 -11 30 -24 114 -30 202 -8 104 -40 173 -96 205 l-37 20 39 25 c56
35 89 87 101 162 16 93 -7 167 -72 230 -76 73 -103 78 -427 78 l-273 0 0 -470z
m509 297 c61 -31 86 -126 51 -191 -26 -49 -62 -60 -212 -64 l-137 -4 -3 132
c-2 72 -1 134 1 136 11 10 278 3 300 -9z"/>
<path d="M8387 2393 c-4 -3 -7 -79 -7 -169 l0 -162 -37 34 c-20 18 -53 39 -72
46 -49 17 -158 15 -203 -5 -59 -25 -122 -91 -154 -160 -26 -56 -29 -73 -29
-167 0 -80 5 -118 19 -157 29 -78 82 -143 145 -175 45 -24 65 -28 133 -28 87
0 133 17 178 65 l25 27 5 -39 5 -38 88 -3 87 -3 0 471 0 470 -88 0 c-49 0 -92
-3 -95 -7z m-69 -400 c48 -35 67 -87 67 -188 0 -119 -24 -177 -87 -205 -56
-25 -84 -25 -138 3 -65 33 -94 96 -94 202 0 67 4 88 26 131 34 65 73 86 146
81 32 -2 64 -12 80 -24z"/>
<path d="M2542 2145 c-70 -20 -100 -36 -146 -81 -85 -83 -125 -236 -92 -361
25 -102 85 -177 176 -225 63 -32 207 -38 282 -11 92 33 172 124 193 221 l7 32
-90 0 -89 0 -7 -31 c-16 -81 -125 -131 -203 -93 -123 61 -125 342 -3 406 74
39 167 12 191 -56 l13 -36 89 0 90 0 -6 36 c-14 85 -94 168 -187 194 -65 18
-162 21 -218 5z"/>
<path d="M6610 2142 c-78 -26 -133 -66 -175 -126 -45 -66 -65 -131 -65 -216 0
-86 20 -153 68 -220 30 -44 52 -62 106 -90 66 -33 74 -35 175 -35 99 0 110 2
161 30 56 31 115 98 137 155 l11 30 -75 0 c-73 0 -77 -1 -109 -34 -62 -64
-188 -71 -242 -13 -25 26 -52 87 -52 117 0 20 5 20 246 20 l247 0 -5 75 c-9
132 -84 246 -196 297 -62 28 -164 32 -232 10z m188 -149 c26 -19 65 -100 55
-115 -2 -5 -71 -8 -154 -8 -135 0 -149 2 -149 18 0 32 45 97 80 115 45 24 130
19 168 -10z"/>
<path d="M7354 2146 c-97 -22 -159 -68 -189 -139 -30 -73 -26 -77 71 -77 l85
0 15 35 c21 50 56 70 125 69 68 -1 105 -21 114 -62 9 -43 -9 -78 -47 -91 -18
-6 -80 -17 -138 -25 -199 -28 -260 -78 -260 -213 0 -79 23 -120 90 -160 50
-31 61 -33 140 -33 88 0 137 15 201 61 29 20 29 20 29 0 0 -47 7 -51 102 -51
89 0 90 0 83 23 -4 12 -11 139 -14 282 -6 281 -8 289 -65 337 -54 46 -234 68
-342 44z m224 -420 c-6 -75 -30 -120 -74 -141 -63 -30 -172 -12 -188 30 -12
33 -5 75 17 100 17 20 41 30 116 45 51 10 96 21 99 24 3 4 12 6 20 6 12 0 14
-12 10 -64z"/>
<path d="M1982 1803 l3 -338 88 -3 87 -3 0 341 0 340 -90 0 -90 0 2 -337z"/>
<path d="M1735 1048 c-10 -28 -115 -376 -115 -383 0 -3 10 -5 23 -3 16 2 24
13 31 41 l10 37 82 0 82 0 9 -37 c6 -28 14 -39 31 -41 12 -2 22 0 22 5 0 4
-26 94 -58 198 -55 183 -58 190 -85 193 -16 2 -29 -2 -32 -10z m65 -156 c16
-56 30 -104 30 -107 0 -3 -30 -5 -66 -5 -57 0 -65 2 -60 18 34 121 60 202 62
199 2 -2 17 -49 34 -105z"/>
<path d="M2180 1058 c0 -2 -1 -92 -3 -201 l-2 -197 118 0 c110 0 117 1 117 20
0 19 -7 20 -95 20 l-95 0 0 65 0 64 73 3 c64 3 72 5 72 23 0 18 -8 20 -72 23
l-73 3 0 69 0 70 95 0 c88 0 95 1 95 20 0 19 -7 20 -115 20 -63 0 -115 -1
-115 -2z"/>
<path d="M2660 1040 c0 -17 7 -20 50 -20 l50 0 0 -180 0 -180 25 0 25 0 0 180
0 180 50 0 c43 0 50 3 50 20 0 19 -7 20 -125 20 -118 0 -125 -1 -125 -20z"/>
<path d="M3180 860 l0 -200 115 0 c108 0 115 1 115 20 0 18 -8 20 -92 22 l-93
3 -3 63 -3 62 76 0 c73 0 76 1 73 23 -3 20 -10 22 -73 27 l-70 5 0 65 0 65 93
3 c84 2 92 4 92 22 0 19 -7 20 -115 20 l-115 0 0 -200z"/>
<path d="M3680 860 l0 -200 25 0 c24 0 25 2 25 70 l0 70 56 0 56 0 31 -70 c26
-56 36 -70 55 -70 12 0 22 2 22 5 0 3 -13 35 -30 71 l-30 66 25 30 c20 24 25
40 25 88 0 117 -28 140 -170 140 l-90 0 0 -200z m184 149 c28 -13 41 -60 30
-114 -8 -45 -27 -55 -103 -55 l-61 0 0 90 0 90 55 0 c30 0 65 -5 79 -11z"/>
<path d="M4220 860 l0 -200 25 0 25 0 2 163 3 162 74 -162 c75 -163 75 -163
108 -163 l33 0 0 200 0 200 -25 0 -25 0 -2 -162 -3 -163 -74 163 c-75 162 -75
162 -108 162 l-33 0 0 -200z"/>
<path d="M4835 938 c-21 -68 -48 -158 -60 -200 l-23 -78 24 0 c19 0 25 8 34
40 l11 40 79 0 79 0 12 -40 c10 -33 17 -40 37 -40 16 0 22 4 19 14 -3 7 -31
97 -63 200 -56 180 -59 186 -84 186 -25 0 -29 -6 -65 -122z m98 -41 c15 -51
27 -98 27 -105 0 -8 -20 -12 -60 -12 -34 0 -60 4 -60 10 0 20 54 200 60 200 3
0 18 -42 33 -93z"/>
<path d="M5690 860 l0 -200 105 0 c98 0 105 1 105 20 0 18 -7 20 -85 20 l-85
0 0 180 c0 173 -1 180 -20 180 -19 0 -20 -7 -20 -200z"/>
<path d="M6170 860 l0 -200 25 0 25 0 0 200 0 200 -25 0 -25 0 0 -200z"/>
<path d="M6500 860 l0 -200 103 0 c75 0 108 4 124 15 45 32 55 134 17 177 -15
16 -16 24 -6 52 24 64 9 125 -35 145 -13 6 -64 11 -113 11 l-90 0 0 -200z
m188 148 c7 -7 12 -30 12 -53 0 -23 -5 -46 -12 -53 -7 -7 -39 -12 -75 -12
l-63 0 0 65 0 65 63 0 c36 0 68 -5 75 -12z m16 -174 c10 -9 16 -33 16 -59 0
-63 -17 -75 -101 -75 l-69 0 0 75 0 75 69 0 c50 0 74 -4 85 -16z"/>
<path d="M7040 860 c0 -192 1 -200 20 -200 17 0 19 8 22 68 l3 67 60 0 59 0
27 -65 c23 -54 32 -66 53 -68 l26 -3 -20 52 c-12 28 -26 61 -31 71 -9 16 -6
25 11 43 27 28 38 117 20 169 -17 52 -50 66 -160 66 l-90 0 0 -200z m188 144
c18 -13 22 -25 22 -74 0 -79 -12 -90 -101 -90 l-69 0 0 83 c0 46 3 87 7 90 13
14 118 7 141 -9z"/>
<path d="M7580 861 c0 -194 1 -201 20 -201 19 0 20 7 20 190 0 105 1 193 3
198 1 4 -8 8 -20 10 l-23 3 0 -200z"/>
</g>
</svg>
